<mxfile host="app.diagrams.net" agent="Mozilla/5.0 (X11; Linux x86_64; rv:130.0) Gecko/20100101 Firefox/130.0" version="24.7.14">
  <diagram name="Page-1" id="k5lufUppnij_m6aGm4VU">
    <mxGraphModel dx="1434" dy="794" grid="0" gridSize="10" guides="1" tooltips="1" connect="1" arrows="1" fold="1" page="1" pageScale="1" pageWidth="850" pageHeight="1100" math="0" shadow="0">
      <root>
        <mxCell id="0" />
        <mxCell id="1" parent="0" />
        <mxCell id="mhDi8RUBU3r3SvbN5fD3-1" value="&lt;font style=&quot;font-size: 16px;&quot;&gt;Vyaguta Attendence System&lt;br&gt;&lt;/font&gt;" style="rounded=0;whiteSpace=wrap;html=1;" parent="1" vertex="1">
          <mxGeometry x="120" y="180" width="120" height="60" as="geometry" />
        </mxCell>
        <mxCell id="mhDi8RUBU3r3SvbN5fD3-2" value="&lt;div&gt;&lt;font style=&quot;font-size: 18px;&quot;&gt;Data Fetching and Analyzing&amp;nbsp;&lt;/font&gt;&lt;/div&gt;&lt;div&gt;&lt;font style=&quot;font-size: 18px;&quot;&gt;&amp;nbsp;System&lt;/font&gt;&lt;/div&gt;" style="rounded=0;whiteSpace=wrap;html=1;" parent="1" vertex="1">
          <mxGeometry x="490" y="170" width="170" height="70" as="geometry" />
        </mxCell>
        <mxCell id="mhDi8RUBU3r3SvbN5fD3-3" value="" style="endArrow=classic;html=1;rounded=0;dashed=1;exitX=-0.006;exitY=0.6;exitDx=0;exitDy=0;exitPerimeter=0;" parent="1" source="mhDi8RUBU3r3SvbN5fD3-2" target="mhDi8RUBU3r3SvbN5fD3-1" edge="1">
          <mxGeometry width="50" height="50" relative="1" as="geometry">
            <mxPoint x="480" y="210" as="sourcePoint" />
            <mxPoint x="450" y="230" as="targetPoint" />
          </mxGeometry>
        </mxCell>
        <mxCell id="mhDi8RUBU3r3SvbN5fD3-4" value="&lt;font style=&quot;font-size: 15px;&quot;&gt;Fetch Data Information &lt;br&gt;&lt;/font&gt;" style="text;html=1;align=center;verticalAlign=middle;resizable=0;points=[];autosize=1;strokeColor=none;fillColor=none;" parent="1" vertex="1">
          <mxGeometry x="270" y="180" width="170" height="30" as="geometry" />
        </mxCell>
        <mxCell id="mhDi8RUBU3r3SvbN5fD3-5" value="&lt;div&gt;&lt;font style=&quot;font-size: 24px;&quot;&gt;Users&lt;br&gt;&lt;/font&gt;&lt;/div&gt;&lt;div style=&quot;&quot;&gt;&lt;font style=&quot;font-size: 12px;&quot;&gt;admin&lt;/font&gt;&lt;/div&gt;&lt;div style=&quot;&quot;&gt;&lt;font style=&quot;font-size: 12px;&quot;&gt;&lt;br&gt;&lt;/font&gt;&lt;/div&gt;" style="rounded=0;whiteSpace=wrap;html=1;" parent="1" vertex="1">
          <mxGeometry x="511" y="50" width="120" height="60" as="geometry" />
        </mxCell>
        <mxCell id="mhDi8RUBU3r3SvbN5fD3-6" value="" style="endArrow=classic;html=1;rounded=0;dashed=1;exitX=0.5;exitY=1;exitDx=0;exitDy=0;" parent="1" source="mhDi8RUBU3r3SvbN5fD3-5" target="mhDi8RUBU3r3SvbN5fD3-2" edge="1">
          <mxGeometry width="50" height="50" relative="1" as="geometry">
            <mxPoint x="516" y="220" as="sourcePoint" />
            <mxPoint x="250" y="220" as="targetPoint" />
          </mxGeometry>
        </mxCell>
        <mxCell id="mhDi8RUBU3r3SvbN5fD3-7" value="&lt;div&gt;Visualize Data&lt;/div&gt;&lt;div&gt;&lt;br&gt;&lt;/div&gt;" style="text;html=1;align=center;verticalAlign=middle;resizable=0;points=[];autosize=1;strokeColor=none;fillColor=none;" parent="1" vertex="1">
          <mxGeometry x="570" y="123" width="100" height="40" as="geometry" />
        </mxCell>
      </root>
    </mxGraphModel>
  </diagram>
</mxfile>
